<?xml version="1.0" standalone="no"?>
<!DOCTYPE svg PUBLIC "-//W3C//DTD SVG 20010904//EN"
 "http://www.w3.org/TR/2001/REC-SVG-20010904/DTD/svg10.dtd">
<svg version="1.0" xmlns="http://www.w3.org/2000/svg"
 width="150.000000pt" height="150.000000pt" viewBox="0 0 150.000000 150.000000"
 preserveAspectRatio="xMidYMid meet">
<metadata>
Created by potrace 1.11, written by Peter Selinger 2001-2013
</metadata>
<g transform="translate(0.000000,150.000000) scale(0.100000,-0.100000)"
fill="#000000" stroke="none">
<path d="M668 1428 c-72 -49 -88 -65 -89 -87 -1 -39 -1 -610 0 -651 1 -30 8
-39 49 -67 26 -18 67 -47 91 -64 42 -31 45 -31 57 -14 8 11 14 15 14 9 0 -5 4
-4 8 2 4 6 35 29 70 53 34 23 62 45 63 49 1 4 2 164 3 356 l1 348 -27 22 c-40
32 -145 106 -149 106 -2 -1 -43 -28 -91 -62z"/>
<path d="M333 1192 l-122 -87 0 -355 0 -355 81 -55 c44 -30 86 -60 92 -65 17
-16 65 -45 73 -45 9 0 11 1035 3 1043 -3 3 -60 -34 -127 -81z"/>
<path d="M1049 1263 c-3 -61 -3 -1035 0 -1038 3 -4 139 88 226 152 l30 21 0
344 c1 188 -1 348 -3 355 -3 11 -236 183 -247 183 -3 0 -5 -8 -6 -17z"/>
<path d="M615 600 c-3 -5 -1 -10 4 -10 6 0 11 5 11 10 0 6 -2 10 -4 10 -3 0
-8 -4 -11 -10z"/>
<path d="M615 560 c-3 -5 -1 -10 4 -10 6 0 11 5 11 10 0 6 -2 10 -4 10 -3 0
-8 -4 -11 -10z"/>
<path d="M730 525 c0 -5 5 -17 10 -25 5 -8 10 -10 10 -5 0 6 -5 17 -10 25 -5
8 -10 11 -10 5z"/>
<path d="M850 520 c0 -5 5 -10 11 -10 5 0 7 5 4 10 -3 6 -8 10 -11 10 -2 0 -4
-4 -4 -10z"/>
<path d="M795 510 c-4 -6 -10 -8 -14 -6 -4 3 -8 -1 -8 -9 0 -13 4 -12 19 2 18
16 22 23 14 23 -3 0 -8 -5 -11 -10z"/>
<path d="M593 475 c0 -8 4 -12 9 -9 5 3 6 10 3 15 -9 13 -12 11 -12 -6z"/>
<path d="M706 478 c3 -4 9 -8 15 -8 5 0 9 4 9 8 0 5 -7 9 -15 9 -8 0 -12 -4
-9 -9z"/>
<path d="M795 480 c-3 -5 -1 -10 4 -10 6 0 11 5 11 10 0 6 -2 10 -4 10 -3 0
-8 -4 -11 -10z"/>
<path d="M649 463 c-13 -16 -12 -17 4 -4 16 13 21 21 13 21 -2 0 -10 -8 -17
-17z"/>
<path d="M750 465 c8 -11 15 -21 16 -23 1 -2 5 5 8 15 4 9 4 14 0 10 -4 -4
-14 -1 -23 6 -14 11 -15 10 -1 -8z"/>
<path d="M833 455 c0 -8 4 -12 9 -9 5 3 6 10 3 15 -9 13 -12 11 -12 -6z"/>
<path d="M866 458 c3 -4 9 -8 15 -8 5 0 9 4 9 8 0 5 -7 9 -15 9 -8 0 -12 -4
-9 -9z"/>
<path d="M730 454 c0 -6 3 -14 8 -18 7 -7 8 -11 11 -37 0 -5 7 -7 14 -3 7 4 9
3 4 -2 -5 -5 -13 -10 -18 -10 -22 -3 -23 -5 -10 -13 10 -7 19 -4 28 7 17 23
16 32 -3 32 -8 0 -13 4 -10 9 3 4 -1 17 -9 27 -8 10 -15 14 -15 8z"/>
<path d="M675 440 c-16 -7 -17 -9 -3 -9 9 -1 20 4 23 9 7 11 7 11 -20 0z"/>
<path d="M706 435 c-3 -8 -3 -23 1 -32 6 -16 4 -16 -18 2 -13 11 -18 13 -12 5
9 -9 9 -17 2 -26 -7 -8 -6 -14 2 -20 7 -4 9 -3 5 4 -3 6 -2 13 4 17 6 4 9 -4
8 -19 -2 -19 -6 -23 -19 -16 -9 5 -20 6 -24 2 -5 -4 -5 2 -1 13 12 33 12 37
-4 42 -11 3 -12 2 -2 -5 10 -7 9 -14 -6 -33 -18 -21 -22 -22 -38 -9 -18 14
-18 14 -4 -4 14 -18 13 -19 -2 -13 -10 3 -18 3 -18 -2 0 -16 41 -20 47 -5 7
20 22 17 18 -3 -1 -10 -8 -17 -14 -15 -6 1 -11 -2 -11 -8 0 -5 -5 -10 -11 -10
-5 0 -8 4 -5 8 3 5 -1 9 -8 9 -7 0 -12 -10 -12 -23 1 -12 -1 -52 -4 -89 l-6
-67 90 -64 c49 -35 92 -64 95 -64 3 1 42 27 85 58 54 39 82 66 87 85 5 18 3
27 -4 27 -9 0 -9 2 -1 8 8 5 8 15 2 31 -8 23 -9 24 -23 5 -10 -12 -14 -14 -13
-5 2 8 -5 17 -16 19 -11 2 -16 0 -12 -6 3 -6 2 -13 -3 -16 -5 -4 -8 2 -7 11 2
14 12 18 44 17 28 0 39 3 33 10 -4 6 -7 26 -6 44 2 23 -1 30 -8 23 -16 -16
-31 -13 -18 3 13 15 -1 32 -18 22 -4 -3 -17 1 -27 8 -13 10 -23 11 -31 4 -16
-13 -17 4 -2 19 7 7 6 15 -5 25 -8 9 -13 17 -11 20 2 2 -5 5 -17 5 -18 2 -19
1 -4 -10 16 -12 16 -15 -3 -38 -11 -15 -17 -30 -13 -35 4 -5 0 -3 -9 4 -13 10
-19 9 -28 -2 -9 -11 -9 -15 1 -18 7 -3 3 -7 -10 -10 -12 -4 -25 -1 -29 4 -3 7
-1 8 5 4 12 -7 16 4 13 34 -2 13 -1 13 10 0 9 -13 10 -13 6 1 -3 9 -1 21 5 27
8 8 7 13 -5 18 -9 3 -17 10 -17 16 0 5 4 6 10 3 6 -3 7 1 4 9 -8 20 -10 20
-18 1z m102 -59 c-14 -8 -14 -12 -2 -31 12 -18 11 -23 -7 -39 -20 -17 -21 -17
-13 6 6 20 5 21 -9 10 -10 -9 -17 -10 -22 -2 -4 6 -1 9 7 8 7 -2 13 4 13 12 1
23 28 59 39 53 6 -4 3 -11 -6 -17z m81 -39 c12 3 11 1 -3 -11 -22 -18 -41 -21
-31 -7 3 5 0 13 -7 17 -7 4 -10 4 -6 -1 4 -4 2 -15 -5 -23 -10 -13 -9 -14 2
-7 10 5 12 4 7 -4 -9 -14 16 -11 26 3 4 6 12 5 21 -3 12 -9 16 -9 21 1 3 7 3
0 1 -16 -4 -28 -15 -49 -15 -29 0 15 -33 12 -55 -6 -20 -16 -20 -16 -2 5 22
26 22 41 0 23 -11 -10 -14 -10 -9 -1 4 6 3 12 -2 12 -7 0 -10 50 -3 68 1 2 11
-4 22 -12 12 -8 29 -12 38 -9z m-221 0 c-1 -2 3 -11 11 -21 12 -14 12 -16 -4
-10 -13 5 -16 4 -11 -4 4 -7 3 -12 -3 -12 -8 0 -8 18 -2 59 1 2 4 2 7 -1 3 -4
4 -8 2 -11z m-38 -52 c-7 -8 -20 -15 -29 -15 -11 1 -8 5 9 15 32 18 35 18 20
0z m155 -13 c-3 -3 -11 0 -18 7 -9 10 -8 11 6 5 10 -3 15 -9 12 -12z m-138 -7
c0 -8 -4 -15 -9 -15 -10 0 -11 14 -1 23 9 10 10 9 10 -8z m168 -4 c-3 -6 -11
-11 -16 -11 -5 0 -4 6 3 14 14 16 24 13 13 -3z m-210 -21 c3 -5 1 -10 -4 -10
-6 0 -11 5 -11 10 0 6 2 10 4 10 3 0 8 -4 11 -10z m310 -40 c-3 -5 -12 -10
-18 -10 -7 0 -6 4 3 10 19 12 23 12 15 0z"/>
<path d="M790 340 c6 -11 13 -20 16 -20 2 0 0 9 -6 20 -6 11 -13 20 -16 20 -2
0 0 -9 6 -20z"/>
<path d="M874 283 c10 -11 37 -12 30 -2 -3 5 -12 9 -21 9 -9 0 -13 -3 -9 -7z"/>
<path d="M910 441 c0 -6 4 -13 10 -16 6 -3 7 1 4 9 -7 18 -14 21 -14 7z"/>
<path d="M594 412 c3 -5 0 -13 -6 -15 -9 -4 -10 -6 -1 -6 17 -1 25 16 12 25
-7 4 -9 3 -5 -4z"/>
<path d="M835 400 c3 -5 8 -10 11 -10 2 0 4 5 4 10 0 6 -5 10 -11 10 -5 0 -7
-4 -4 -10z"/>
<path d="M857 386 c-4 -10 -3 -15 3 -11 6 3 10 1 10 -6 0 -7 3 -10 6 -6 3 3 2
13 -4 22 -8 16 -9 16 -15 1z"/>
<path d="M610 380 c0 -5 5 -10 10 -10 6 0 10 5 10 10 0 6 -4 10 -10 10 -5 0
-10 -4 -10 -10z"/>
</g>
</svg>
