<?xml version='1.0' encoding='iso-8859-1'?>
<svg version="1.1" xmlns="http://www.w3.org/2000/svg" viewBox="0 0 470 470" xmlns:xlink="http://www.w3.org/1999/xlink" enable-background="new 0 0 470 470">
  <g>
    <path d="m467.804,96.959l-27.936-27.936 17.405-17.405c2.929-2.929 2.929-7.678 0-10.606-2.93-2.929-7.677-2.929-10.607,0 0,0-17.405,17.405-17.405,17.405l-17.677-17.677 17.405-17.405c2.929-2.929 2.929-7.678 0-10.606-2.93-2.929-7.678-2.929-10.607,0l-17.405,17.405-27.936-27.937c-1.407-1.407-3.314-2.197-5.303-2.197s-3.896,0.79-5.304,2.197l-63.493,63.494-2.339-2.339c-4.479-4.479-10.434-6.945-16.768-6.945-6.333,0-12.288,2.466-16.767,6.945-7.39,7.39-8.855,18.48-4.43,27.357l-121.925,121.926c-0.284,0.285-0.546,0.592-0.78,0.918l-64.813,89.929-59.863,59.863c-1.406,1.406-2.196,3.314-2.196,5.303s0.79,3.897 2.196,5.303l15.895,15.895-24.954,24.955c-2.929,2.929-2.929,7.678 8.88178e-16,10.606 1.465,1.464 3.385,2.197 5.304,2.197s3.839-0.732 5.304-2.197l24.954-24.954 10.591,10.591-24.955,24.954c-2.929,2.929-2.929,7.678 0,10.606 1.465,1.465 3.384,2.197 5.304,2.197 1.919,0 3.839-0.732 5.304-2.197l24.954-24.954 10.591,10.591-24.954,24.955c-2.929,2.929-2.929,7.678 0,10.606 1.465,1.464 3.385,2.197 5.304,2.197s3.839-0.732 5.304-2.197l24.954-24.954 15.895,15.895c1.407,1.407 3.314,2.197 5.304,2.197s3.896-0.79 5.304-2.197l59.862-59.863 89.929-64.812c0.327-0.235 0.634-0.497 0.919-0.781l121.909-121.91c3.253,1.63 6.862,2.499 10.607,2.499 6.333,0 12.288-2.466 16.768-6.945 9.245-9.245 9.245-24.289 0-33.534l-2.339-2.339 63.493-63.494c2.926-2.927 2.926-7.676-0.003-10.605zm-71.761,99.366c-1.646,1.646-3.834,2.552-6.161,2.552-2.326,0-4.513-0.906-6.158-2.55-0.007-0.006-110.044-110.043-110.044-110.043-3.402-3.405-3.401-8.929-0.005-12.325 1.645-1.646 3.833-2.551 6.159-2.551 2.327,0 4.516,0.906 6.16,2.551l7.642,7.642c0.001,0.001 94.759,94.759 94.759,94.759 0.008,0.008 7.646,7.646 7.646,7.646 3.399,3.396 3.399,8.923 0.002,12.319zm-149.356,126.29l-84.252,60.72-11.383-11.383 51.276-51.276c2.929-2.929 2.929-7.678 0-10.606-2.93-2.929-7.678-2.929-10.607,0l-51.275,51.276-10.591-10.591 51.276-51.276c2.929-2.929 2.929-7.678 0-10.606-2.93-2.929-7.678-2.929-10.607,0l-51.275,51.276-10.591-10.591 51.276-51.276c2.929-2.929 2.929-7.678 0-10.606-2.93-2.929-7.678-2.929-10.607,0l-51.276,51.276-11.382-11.382 60.721-84.252 .361-.501 120.624-120.625 99.44,99.44-120.628,120.622-.5,.361zm-122.158,65.253c-2.93-2.929-7.678-2.929-10.607,0l-33.767,33.768-10.591-10.591 33.768-33.768c2.929-2.929 2.929-7.678 0-10.606s-7.677-2.93-10.607,0l-33.768,33.768-10.591-10.591 33.768-33.768c2.929-2.929 2.929-7.678 0-10.606-2.93-2.929-7.678-2.929-10.607,0l-33.769,33.766-10.592-10.592 49.684-49.683 15.781,15.781c0.037,0.039 0.07,0.081 0.108,0.119s0.08,0.07 0.119,0.108l20.969,20.969c0.038,0.04 0.071,0.083 0.11,0.122 0.039,0.039 0.082,0.072 0.122,0.11l20.964,20.964c0.039,0.041 0.073,0.084 0.113,0.125 0.04,0.04 0.083,0.073 0.124,0.112l15.777,15.777-49.683,49.684-10.592-10.592 33.768-33.768c2.927-2.93 2.927-7.679-0.001-10.608zm185.019-311.571l58.19-58.191 27.934,27.934c0.003,0.003 28.278,28.278 28.278,28.278 0.016,0.016 27.944,27.944 27.944,27.944l-58.19,58.19-84.156-84.155z"/>
    <path d="m305.772,164.229c-9.99-9.99-23.272-15.491-37.4-15.491s-27.41,5.501-37.4,15.491l-16.309,16.309c-20.622,20.622-20.622,54.177 0,74.799 9.99,9.99 23.272,15.491 37.4,15.491s27.409-5.501 37.399-15.491l16.31-16.309c20.621-20.621 20.622-54.176 0-74.799zm-53.709,91.6c-7.573,0-14.807-2.208-20.967-6.317l53.462-53.463c2.929-2.929 2.929-7.678 0-10.606-2.93-2.929-7.678-2.929-10.607,0l-53.455,53.456c-9.774-14.71-8.185-34.795 4.774-47.753l16.309-16.309c7.156-7.156 16.672-11.098 26.793-11.098s19.637,3.941 26.793,11.098c14.774,14.774 14.774,38.813 0,53.586l-16.31,16.309c-7.157,7.156-16.671,11.097-26.792,11.097z"/>
    <path d="m157.925,244.454l67.62,67.621c1.465,1.465 3.384,2.197 5.304,2.197 1.918,0 3.836-0.732 5.301-2.194 2.932-2.931 2.932-7.68 0.003-10.609l-67.62-67.621c-2.929-2.929-7.677-2.93-10.607,0-2.93,2.932-2.929,7.678-0.001,10.606z"/>
  </g>
</svg>
