<svg width="580" height="400" xmlns="http://www.w3.org/2000/svg">
 <!-- Created with SVG Editor - http://github.com/mzalive/SVG Editor/ -->

 <g>
  <title>background</title>
  <rect fill="#fff" id="canvas_background" height="402" width="582" y="-1" x="-1"/>
  <g display="none" overflow="visible" y="0" x="0" height="100%" width="100%" id="canvasGrid">
   <rect fill="url(#gridpattern)" stroke-width="0" y="0" x="0" height="100%" width="100%"/>
  </g>
 </g>
 <g>
  <title>Layer 1</title>
  <g stroke="null" id="svg_21">
   <path fill="#00bd9d" stroke="null" id="svg_5" d="m152.644693,0.35607c-4.327882,0.058104 -7.785169,3.197077 -7.723992,7.013926l0,387.35684c0,3.819615 3.512189,6.917086 7.843208,6.917086l283.643356,-0.085772c3.333364,-0.395657 6.368685,-2.466633 6.641629,-6.244746l0.031373,-388.040248c0,-3.819615 -3.512189,-6.917086 -7.843208,-6.917086l-282.355501,0l0,0.013834c-0.078432,0 -0.156864,-0.013834 -0.232159,-0.013834l-0.004706,0zm7.962425,13.834173l266.783595,0l0,373.619506l-266.783595,0l0,-373.619506zm54.902459,13.931012c-4.33102,0 -7.84164,3.097471 -7.843208,6.917086l0,13.834173c0,3.819615 3.512189,6.917086 7.843208,6.917086l156.864167,0c4.332588,0 7.843208,-3.097471 7.843208,-6.917086l0,-13.834173c0,-3.819615 -3.51062,-6.917086 -7.843208,-6.917086l-156.864167,0zm0,41.502519c-4.33102,0 -7.84164,3.097471 -7.843208,6.917086l0,13.834173c0,3.819615 3.512189,6.917086 7.843208,6.917086l156.864167,0c4.332588,0 7.843208,-3.097471 7.843208,-6.917086l0,-13.834173c0,-3.819615 -3.51062,-6.917086 -7.843208,-6.917086l-156.864167,0zm0,69.170864c-10.605586,-0.132808 -10.605586,13.966981 0,13.834173l156.864167,0c10.607155,0.132808 10.607155,-13.966981 0,-13.834173l-156.864167,0zm0,27.668346c-10.605586,-0.132808 -10.605586,13.966981 0,13.834173l156.864167,0c10.607155,0.132808 10.607155,-13.966981 0,-13.834173l-156.864167,0zm0,27.668346c-10.605586,-0.132808 -10.605586,13.966981 0,13.834173l156.864167,0c10.607155,0.132808 10.607155,-13.966981 0,-13.834173l-156.864167,0zm78.432084,55.336691c-21.565686,0 -39.216042,15.566211 -39.216042,34.585432c0,4.94295 1.203148,9.649336 3.345913,13.913028l-18.682522,53.213146c-1.949822,5.558571 4.277686,10.627412 10.4048,8.467897l12.775018,-4.504407l12.773449,4.504407c4.552198,1.606147 9.640872,-0.8259 10.604018,-5.066074l7.992229,-35.249472l7.996935,35.249472c1.206285,5.532286 7.380459,6.683289 11.587556,4.72022l11.791479,-4.158552l11.032257,3.890169c5.341225,3.494512 14.900527,-0.727677 12.11462,-7.938048l-19.142134,-52.167282c2.458062,-4.512707 3.838466,-9.55803 3.838466,-14.874503c0,-19.019221 -17.650356,-34.585432 -39.216042,-34.585432l0,0zm0,13.834173c13.088746,0 23.529625,9.208025 23.529625,20.751259s-10.440879,20.751259 -23.529625,20.751259c-13.087177,0 -23.529625,-9.208025 -23.529625,-20.751259s10.442448,-20.751259 23.529625,-20.751259zm-24.114728,47.96031c2.705907,1.871764 5.691032,3.447476 8.894198,4.646899l-6.307508,27.803921l-6.933396,-2.445882c-1.869821,-0.65989 -3.954546,-0.65989 -5.824367,0l-0.417259,0.146642l10.588331,-30.15158zm47.675726,0.387357l10.887942,29.678451l-0.164707,-0.059487c-0.974126,-0.343087 -2.015705,-0.510481 -3.063557,-0.492497c-0.94746,0.015218 -1.88237,0.182611 -2.760809,0.492497l-6.933396,2.445882l-6.30594,-27.801154c2.986694,-1.119185 5.782013,-2.559322 8.340468,-4.263692l0,0z"/>
   <g stroke="null" transform="matrix(1.5686416722693717,0,0,1.3834172860398184,-1718.472549869295,-906.7372613683694) " id="svg_6"/>
   <g stroke="null" transform="matrix(1.5686416722693717,0,0,1.3834172860398184,-1718.472549869295,-906.7372613683694) " id="svg_7"/>
   <g stroke="null" transform="matrix(1.5686416722693717,0,0,1.3834172860398184,-1718.472549869295,-906.7372613683694) " id="svg_8"/>
   <g stroke="null" transform="matrix(1.5686416722693717,0,0,1.3834172860398184,-1718.472549869295,-906.7372613683694) " id="svg_9"/>
   <g stroke="null" transform="matrix(1.5686416722693717,0,0,1.3834172860398184,-1718.472549869295,-906.7372613683694) " id="svg_10"/>
   <g stroke="null" transform="matrix(1.5686416722693717,0,0,1.3834172860398184,-1718.472549869295,-906.7372613683694) " id="svg_11"/>
   <g stroke="null" transform="matrix(1.5686416722693717,0,0,1.3834172860398184,-1718.472549869295,-906.7372613683694) " id="svg_12"/>
   <g stroke="null" transform="matrix(1.5686416722693717,0,0,1.3834172860398184,-1718.472549869295,-906.7372613683694) " id="svg_13"/>
   <g stroke="null" transform="matrix(1.5686416722693717,0,0,1.3834172860398184,-1718.472549869295,-906.7372613683694) " id="svg_14"/>
   <g stroke="null" transform="matrix(1.5686416722693717,0,0,1.3834172860398184,-1718.472549869295,-906.7372613683694) " id="svg_15"/>
   <g stroke="null" transform="matrix(1.5686416722693717,0,0,1.3834172860398184,-1718.472549869295,-906.7372613683694) " id="svg_16"/>
   <g stroke="null" transform="matrix(1.5686416722693717,0,0,1.3834172860398184,-1718.472549869295,-906.7372613683694) " id="svg_17"/>
   <g stroke="null" transform="matrix(1.5686416722693717,0,0,1.3834172860398184,-1718.472549869295,-906.7372613683694) " id="svg_18"/>
   <g stroke="null" transform="matrix(1.5686416722693717,0,0,1.3834172860398184,-1718.472549869295,-906.7372613683694) " id="svg_19"/>
   <g stroke="null" transform="matrix(1.5686416722693717,0,0,1.3834172860398184,-1718.472549869295,-906.7372613683694) " id="svg_20"/>
  </g>
 </g>
</svg>