<svg width="580" height="400" xmlns="http://www.w3.org/2000/svg">
 <!-- Created with SVG Editor - http://github.com/mzalive/SVG Editor/ -->

 <g>
  <title>background</title>
  <rect fill="#fff" id="canvas_background" height="402" width="582" y="-1" x="-1"/>
  <g display="none" overflow="visible" y="0" x="0" height="100%" width="100%" id="canvasGrid">
   <rect fill="url(#gridpattern)" stroke-width="0" y="0" x="0" height="100%" width="100%"/>
  </g>
 </g>
 <g>
  <title>Layer 1</title>
  <g stroke="null" id="svg_69">
   <g stroke="null" transform="matrix(0.6839874061887279,0,0,0.6993760602609195,-1830.5510734384727,-1557.3071581006436) " id="svg_52">
    <path fill="#00bd9d" stroke="null" id="svg_53" d="m3341.565175,2710.888996l-109.6,-109.6c29.4,-33.8 47.2,-77.9 47.2,-126.1c0,-106.1 -86.3,-192.3 -192.3,-192.3c-106.1,0 -192.3,86.3 -192.3,192.3s86.3,192.3 192.3,192.3c48.2,0 92.3,-17.8 126.1,-47.2l109.6,109.6c2.6,2.6 6.1,4 9.5,4s6.9,-1.3 9.5,-4c5.2,-5.2 5.2,-13.8 0,-19zm-420.1,-235.7c0,-91.2 74.2,-165.3 165.3,-165.3c91.2,0 165.3,74.2 165.3,165.3s-74.1,165.4 -165.3,165.4c-91.1,0 -165.3,-74.2 -165.3,-165.4z"/>
   </g>
   <g stroke="null" transform="matrix(0.6839874061887279,0,0,0.6993760602609195,-1830.5510734384727,-1557.3071581006436) " id="svg_54"/>
   <g stroke="null" transform="matrix(0.6839874061887279,0,0,0.6993760602609195,-1830.5510734384727,-1557.3071581006436) " id="svg_55"/>
   <g stroke="null" transform="matrix(0.6839874061887279,0,0,0.6993760602609195,-1830.5510734384727,-1557.3071581006436) " id="svg_56"/>
   <g stroke="null" transform="matrix(0.6839874061887279,0,0,0.6993760602609195,-1830.5510734384727,-1557.3071581006436) " id="svg_57"/>
   <g stroke="null" transform="matrix(0.6839874061887279,0,0,0.6993760602609195,-1830.5510734384727,-1557.3071581006436) " id="svg_58"/>
   <g stroke="null" transform="matrix(0.6839874061887279,0,0,0.6993760602609195,-1830.5510734384727,-1557.3071581006436) " id="svg_59"/>
   <g stroke="null" transform="matrix(0.6839874061887279,0,0,0.6993760602609195,-1830.5510734384727,-1557.3071581006436) " id="svg_60"/>
   <g stroke="null" transform="matrix(0.6839874061887279,0,0,0.6993760602609195,-1830.5510734384727,-1557.3071581006436) " id="svg_61"/>
   <g stroke="null" transform="matrix(0.6839874061887279,0,0,0.6993760602609195,-1830.5510734384727,-1557.3071581006436) " id="svg_62"/>
   <g stroke="null" transform="matrix(0.6839874061887279,0,0,0.6993760602609195,-1830.5510734384727,-1557.3071581006436) " id="svg_63"/>
   <g stroke="null" transform="matrix(0.6839874061887279,0,0,0.6993760602609195,-1830.5510734384727,-1557.3071581006436) " id="svg_64"/>
   <g stroke="null" transform="matrix(0.6839874061887279,0,0,0.6993760602609195,-1830.5510734384727,-1557.3071581006436) " id="svg_65"/>
   <g stroke="null" transform="matrix(0.6839874061887279,0,0,0.6993760602609195,-1830.5510734384727,-1557.3071581006436) " id="svg_66"/>
   <g stroke="null" transform="matrix(0.6839874061887279,0,0,0.6993760602609195,-1830.5510734384727,-1557.3071581006436) " id="svg_67"/>
   <g stroke="null" transform="matrix(0.6839874061887279,0,0,0.6993760602609195,-1830.5510734384727,-1557.3071581006436) " id="svg_68"/>
  </g>
 </g>
</svg>