<svg width="580" height="400" xmlns="http://www.w3.org/2000/svg">
 <!-- Created with SVG Editor - http://github.com/mzalive/SVG Editor/ -->

 <g>
  <title>background</title>
  <rect fill="#fff" id="canvas_background" height="402" width="582" y="-1" x="-1"/>
  <g display="none" overflow="visible" y="0" x="0" height="100%" width="100%" id="canvasGrid">
   <rect fill="url(#gridpattern)" stroke-width="0" y="0" x="0" height="100%" width="100%"/>
  </g>
 </g>
 <g>
  <title>Layer 1</title>
  <g stroke="null" id="svg_47">
   <g stroke="null" transform="matrix(-1.322422556199601,0,0,1.2981177245410804,2130.4393344887985,-1358.7292621377537) " id="svg_26">
    <g stroke="null" id="svg_27">
     <path fill="#00bd9d" stroke="null" id="svg_28" d="m1483.649035,1235.28465l-55.805,-2.931l-30.587,51.739c-3.081,5.21 -6.985,8.083 -10.999,8.083c-4.062,0 -7.969,-2.94 -10.999,-8.279l-29.352,-51.688l-57.469,3.076c-15.366,0.803 -33.536,6.954 -41.363,14.002c-7.927,7.135 -14.135,24.886 -14.135,40.415l0,17.232c0,16.078 13.087,29.163 29.163,29.163l247.887,0c16.078,0 29.163,-13.085 29.163,-29.163l0,-17.232c0,-15.529 -6.208,-33.28 -14.136,-40.415c-7.84,-7.042 -26.005,-13.194 -41.368,-14.002z"/>
     <path fill="#00bd9d" stroke="null" id="svg_29" d="m1380.703035,1276.27565c2.338,5.375 6.468,5.53 9.215,0.357l9.344,-17.591l-10.791,-11.526l8.176,-8.492l-10.604,-6.275l-10.382,5.965l7.917,8.632l-10.786,10.807l7.911,18.123z"/>
     <path fill="#00bd9d" stroke="null" id="svg_30" d="m1387.367035,1054.64065c-45.319,0 -82.187,36.869 -82.187,82.187c0,45.319 36.868,82.188 82.187,82.188c25.818,0 48.861,-11.993 63.945,-30.665l58.274,41.658c7.146,5.105 16.119,2.879 20.05,-4.981l6.503,-13.033c3.92,-7.86 0.321,-16.415 -8.036,-19.107l-63.458,-28.337c3.122,-8.681 4.914,-17.986 4.914,-27.721c-0.005,-45.32 -36.873,-82.189 -82.192,-82.189zm0,143.165c-33.621,0 -60.978,-27.355 -60.978,-60.978c0,-33.621 27.356,-60.978 60.978,-60.978c33.622,0 60.978,27.356 60.978,60.978c-0.001,33.623 -27.356,60.978 -60.978,60.978z"/>
     <path fill="#00bd9d" stroke="null" id="svg_31" d="m1387.367035,1084.70065c-28.744,0 -52.128,23.384 -52.128,52.128c0,1.463 1.188,2.651 2.651,2.651s2.651,-1.188 2.651,-2.651c0,-25.818 21.002,-46.825 46.826,-46.825c1.463,0 2.651,-1.188 2.651,-2.651s-1.188,-2.652 -2.651,-2.652z"/>
    </g>
   </g>
   <g stroke="null" transform="matrix(-1.322422556199601,0,0,1.2981177245410804,2130.4393344887985,-1358.7292621377537) " id="svg_32"/>
   <g stroke="null" transform="matrix(-1.322422556199601,0,0,1.2981177245410804,2130.4393344887985,-1358.7292621377537) " id="svg_33"/>
   <g stroke="null" transform="matrix(-1.322422556199601,0,0,1.2981177245410804,2130.4393344887985,-1358.7292621377537) " id="svg_34"/>
   <g stroke="null" transform="matrix(-1.322422556199601,0,0,1.2981177245410804,2130.4393344887985,-1358.7292621377537) " id="svg_35"/>
   <g stroke="null" transform="matrix(-1.322422556199601,0,0,1.2981177245410804,2130.4393344887985,-1358.7292621377537) " id="svg_36"/>
   <g stroke="null" transform="matrix(-1.322422556199601,0,0,1.2981177245410804,2130.4393344887985,-1358.7292621377537) " id="svg_37"/>
   <g stroke="null" transform="matrix(-1.322422556199601,0,0,1.2981177245410804,2130.4393344887985,-1358.7292621377537) " id="svg_38"/>
   <g stroke="null" transform="matrix(-1.322422556199601,0,0,1.2981177245410804,2130.4393344887985,-1358.7292621377537) " id="svg_39"/>
   <g stroke="null" transform="matrix(-1.322422556199601,0,0,1.2981177245410804,2130.4393344887985,-1358.7292621377537) " id="svg_40"/>
   <g stroke="null" transform="matrix(-1.322422556199601,0,0,1.2981177245410804,2130.4393344887985,-1358.7292621377537) " id="svg_41"/>
   <g stroke="null" transform="matrix(-1.322422556199601,0,0,1.2981177245410804,2130.4393344887985,-1358.7292621377537) " id="svg_42"/>
   <g stroke="null" transform="matrix(-1.322422556199601,0,0,1.2981177245410804,2130.4393344887985,-1358.7292621377537) " id="svg_43"/>
   <g stroke="null" transform="matrix(-1.322422556199601,0,0,1.2981177245410804,2130.4393344887985,-1358.7292621377537) " id="svg_44"/>
   <g stroke="null" transform="matrix(-1.322422556199601,0,0,1.2981177245410804,2130.4393344887985,-1358.7292621377537) " id="svg_45"/>
   <g stroke="null" transform="matrix(-1.322422556199601,0,0,1.2981177245410804,2130.4393344887985,-1358.7292621377537) " id="svg_46"/>
  </g>
 </g>
</svg>