<svg width="580" height="400" xmlns="http://www.w3.org/2000/svg">
 <!-- Created with SVG Editor - http://github.com/mzalive/SVG Editor/ -->

 <g>
  <title>background</title>
  <rect fill="#fff" id="canvas_background" height="402" width="582" y="-1" x="-1"/>
  <g display="none" overflow="visible" y="0" x="0" height="100%" width="100%" id="canvasGrid">
   <rect fill="url(#gridpattern)" stroke-width="0" y="0" x="0" height="100%" width="100%"/>
  </g>
 </g>
 <g>
  <title>Layer 1</title>
  <g stroke="null" transform="rotate(-0.00882718712091446 308.49926757808163,196.49955749486907) " id="svg_116">
   <g stroke="null" transform="matrix(0.7791369134306645,0,0,0.7507045817738172,-2512.6590599745123,-2007.8074306965946) " id="svg_97">
    <g stroke="null" id="svg_98">
     <path fill="#00bd9d" stroke="null" id="svg_99" d="m3666.206024,3051.221791c-12.4,-12.3 -27.9,-12.2 -40.2,0c-9.4,9.3 -18.8,18.6 -28.1,28.2c-2.5,2.6 -4.6,3.1 -7.8,1.4c-6.1,-3.3 -12.5,-6 -18.4,-9.6c-27.3,-17.1 -50.1,-39.2 -70.3,-64c-10.1,-12.4 -19,-25.5 -25.2,-40.4c-1.3,-3 -1.1,-5 1.4,-7.4c9.4,-9.1 18.6,-18.4 27.8,-27.7c12.9,-12.9 12.8,-28.1 -0.1,-41.2c-7.3,-7.4 -14.7,-14.7 -22.1,-22.1c-7.6,-7.6 -15.1,-15.2 -22.8,-22.7c-12.4,-12.2 -27.9,-12.2 -40.2,0c-9.4,9.3 -18.6,18.9 -28.2,28c-8.9,8.5 -13.5,18.8 -14.4,30.9c-1.5,19.6 3.4,38.2 10.1,56.3c13.9,37.5 35.1,70.7 60.7,101.2c34.7,41.3 76.1,73.9 124.5,97.4c21.8,10.6 44.4,18.7 69,20.1c16.9,0.9 31.6,-3.3 43.4,-16.5c8.1,-9 17.1,-17.2 25.7,-25.9c12.7,-12.8 12.8,-28.3 0.2,-40.9c-14.8,-15 -29.9,-30.1 -45,-45.1z"/>
     <path fill="#00bd9d" stroke="null" id="svg_100" d="m3819.506024,2737.821791c-59.9,-59.9 -157,-59.9 -216.9,0c-57.7,57.7 -59.8,149.8 -6.5,210l1.6,1.3c-5.8,12.5 -15.8,27.9 -31.6,35.7c-5.2,2.6 -4,10.3 1.7,11.2c17.3,2.7 41.9,-0.2 65,-17.6l0.5,0.1c58.8,34.6 135.6,26.6 186.1,-23.8c60,-60 60,-157.1 0.1,-216.9zm-101.9,13.7c13.8,0.1 24.8,11.3 24.7,25.3c-0.1,13.8 -11.3,25.1 -24.8,25c-13.9,-0.1 -25.2,-11.5 -25,-25.4c0,-13.9 11.3,-25 25.1,-24.9zm35.5,168.5c-0.5,2.2 -1.9,4.4 -3.5,6c-9.1,9.2 -19.9,14.7 -33,14.9c-6.1,0.1 -12.2,-0.1 -18.2,-1c-10,-1.4 -22.7,-13.8 -20.9,-27c1.2,-9 2.6,-18 4.1,-27c2.6,-15.6 5.5,-31.2 8.2,-46.8c0.2,-1 0.2,-2 0.2,-3c0,-6.5 -2.1,-8.8 -8.5,-9.7c-2.8,-0.4 -5.6,-0.6 -8.2,-1.5c-3.2,-1.2 -4.7,-3.7 -4.4,-6.2c0.3,-2.7 2,-4.5 5.6,-5.1c1.9,-0.4 3.8,-0.4 5.7,-0.4c7.7,0 15.3,0 23,0c8.1,0 16.2,0 24.4,0c5.8,0 9.3,2.8 9.5,8.6c0.1,4.8 -0.7,9.7 -1.6,14.5c-3.2,17.9 -6.5,35.7 -9.8,53.5c-1.1,5.9 -2.3,11.8 -3,17.8c-0.3,2.8 0.1,5.9 0.8,8.6c1,3.7 3.7,5.8 7.5,5.4c3.2,-0.4 6.3,-1.5 9.3,-2.6c2.4,-0.9 4.6,-2.6 7,-3.6c3.8,-1.6 6.8,0.8 5.8,4.6z"/>
    </g>
   </g>
   <g stroke="null" transform="matrix(0.7791369134306645,0,0,0.7507045817738172,-2512.6590599745123,-2007.8074306965946) " id="svg_101"/>
   <g stroke="null" transform="matrix(0.7791369134306645,0,0,0.7507045817738172,-2512.6590599745123,-2007.8074306965946) " id="svg_102"/>
   <g stroke="null" transform="matrix(0.7791369134306645,0,0,0.7507045817738172,-2512.6590599745123,-2007.8074306965946) " id="svg_103"/>
   <g stroke="null" transform="matrix(0.7791369134306645,0,0,0.7507045817738172,-2512.6590599745123,-2007.8074306965946) " id="svg_104"/>
   <g stroke="null" transform="matrix(0.7791369134306645,0,0,0.7507045817738172,-2512.6590599745123,-2007.8074306965946) " id="svg_105"/>
   <g stroke="null" transform="matrix(0.7791369134306645,0,0,0.7507045817738172,-2512.6590599745123,-2007.8074306965946) " id="svg_106"/>
   <g stroke="null" transform="matrix(0.7791369134306645,0,0,0.7507045817738172,-2512.6590599745123,-2007.8074306965946) " id="svg_107"/>
   <g stroke="null" transform="matrix(0.7791369134306645,0,0,0.7507045817738172,-2512.6590599745123,-2007.8074306965946) " id="svg_108"/>
   <g stroke="null" transform="matrix(0.7791369134306645,0,0,0.7507045817738172,-2512.6590599745123,-2007.8074306965946) " id="svg_109"/>
   <g stroke="null" transform="matrix(0.7791369134306645,0,0,0.7507045817738172,-2512.6590599745123,-2007.8074306965946) " id="svg_110"/>
   <g stroke="null" transform="matrix(0.7791369134306645,0,0,0.7507045817738172,-2512.6590599745123,-2007.8074306965946) " id="svg_111"/>
   <g stroke="null" transform="matrix(0.7791369134306645,0,0,0.7507045817738172,-2512.6590599745123,-2007.8074306965946) " id="svg_112"/>
   <g stroke="null" transform="matrix(0.7791369134306645,0,0,0.7507045817738172,-2512.6590599745123,-2007.8074306965946) " id="svg_113"/>
   <g stroke="null" transform="matrix(0.7791369134306645,0,0,0.7507045817738172,-2512.6590599745123,-2007.8074306965946) " id="svg_114"/>
   <g stroke="null" transform="matrix(0.7791369134306645,0,0,0.7507045817738172,-2512.6590599745123,-2007.8074306965946) " id="svg_115"/>
  </g>
 </g>
</svg>