<svg width="580" height="400" xmlns="http://www.w3.org/2000/svg">
 <!-- Created with SVG Editor - http://github.com/mzalive/SVG Editor/ -->

 <g>
  <title>background</title>
  <rect fill="#fff" id="canvas_background" height="402" width="582" y="-1" x="-1"/>
  <g display="none" overflow="visible" y="0" x="0" height="100%" width="100%" id="canvasGrid">
   <rect fill="url(#gridpattern)" stroke-width="0" y="0" x="0" height="100%" width="100%"/>
  </g>
 </g>
 <g>
  <title>Layer 1</title>
  <g stroke="null" id="svg_54">
   <g stroke="null" transform="matrix(0.7240667089582399,0,0,0.6791449899232297,-2554.3436428105274,-2014.915489780864) " id="svg_27">
    <path fill="#00bd9d" stroke="null" id="svg_28" d="m4069.005898,3208.175781c-4.418,0 -8,3.582 -8,8l0,256c0,13.234 -10.766,24 -24,24l-304,0c-13.234,0 -24,-10.766 -24,-24l0,-304c0,-13.234 10.766,-24 24,-24l256,0c4.418,0 8,-3.582 8,-8s-3.582,-8 -8,-8l-256,0c-22.056,0 -40,17.944 -40,40l0,304c0,22.056 17.944,40 40,40l304,0c22.056,0 40,-17.944 40,-40l0,-256c0,-4.418 -3.582,-8 -8,-8z"/>
    <path fill="#00bd9d" stroke="null" id="svg_29" d="m4195.633898,3009.552781c-6.042,-6.047 -14.078,-9.377 -22.628,-9.377s-16.586,3.33 -22.625,9.375l-256.969,256.968c-0.759,0.759 -1.358,1.663 -1.76,2.658l-23.031,56.969c-1.203,2.977 -0.51,6.385 1.76,8.655c1.53,1.53 3.576,2.343 5.658,2.343c1.009,0 2.026,-0.19 2.997,-0.583l56.969,-23.031c0.995,-0.402 1.899,-1.001 2.658,-1.76l256.968,-256.967c6.045,-6.044 9.375,-14.079 9.375,-22.627s-3.33,-16.583 -9.372,-22.623zm-261.659,284.278l-22.624,-22.624l236.686,-236.686l22.624,22.624l-236.686,236.686zm-31.461,-8.833l17.67,17.67l-29.662,11.992l11.992,-29.662zm281.804,-241.51l-2.343,2.343l-22.624,-22.624l2.346,-2.346c3.018,-3.021 7.035,-4.685 11.309,-4.685s8.291,1.664 11.313,4.689c3.022,3.021 4.687,7.039 4.687,11.311s-1.665,8.29 -4.688,11.312z"/>
    <path fill="#00bd9d" stroke="null" id="svg_30" d="m3933.005898,3200.175781c0,-4.418 -3.582,-8 -8,-8l-160,0c-4.418,0 -8,3.582 -8,8s3.582,8 8,8l160,0c4.418,0 8,-3.582 8,-8z"/>
    <path fill="#00bd9d" stroke="null" id="svg_31" d="m3893.005898,3240.175781c0,-4.418 -3.582,-8 -8,-8l-120,0c-4.418,0 -8,3.582 -8,8s3.582,8 8,8l120,0c4.418,0 8,-3.582 8,-8z"/>
    <path fill="#00bd9d" stroke="null" id="svg_32" d="m3861.005898,3272.175781l-96,0c-4.418,0 -8,3.582 -8,8s3.582,8 8,8l96,0c4.418,0 8,-3.582 8,-8s-3.582,-8 -8,-8z"/>
    <path fill="#00bd9d" stroke="null" id="svg_33" d="m3765.005898,3328.175781l80,0c4.418,0 8,-3.582 8,-8s-3.582,-8 -8,-8l-80,0c-4.418,0 -8,3.582 -8,8s3.582,8 8,8z"/>
    <path fill="#00bd9d" stroke="null" id="svg_34" d="m3957.005898,3320.175781c0,4.418 3.582,8 8,8l40,0c4.418,0 8,-3.582 8,-8s-3.582,-8 -8,-8l-40,0c-4.418,0 -8,3.582 -8,8z"/>
    <path fill="#00bd9d" stroke="null" id="svg_35" d="m4010.665898,3285.835781c1.49,-1.49 2.34,-3.55 2.34,-5.66c0,-2.11 -0.85,-4.17 -2.34,-5.66c-1.49,-1.49 -3.55,-2.34 -5.66,-2.34c-2.1,0 -4.17,0.85 -5.66,2.34c-1.49,1.49 -2.34,3.56 -2.34,5.66c0,2.11 0.85,4.17 2.34,5.66c1.49,1.49 3.56,2.34 5.66,2.34s4.17,-0.85 5.66,-2.34z"/>
    <path fill="#00bd9d" stroke="null" id="svg_36" d="m3757.005898,3360.175781c0,4.418 3.582,8 8,8l240,0c4.418,0 8,-3.582 8,-8s-3.582,-8 -8,-8l-240,0c-4.418,0 -8,3.582 -8,8z"/>
    <path fill="#00bd9d" stroke="null" id="svg_37" d="m4005.005898,3392.175781l-240,0c-4.418,0 -8,3.582 -8,8s3.582,8 8,8l240,0c4.418,0 8,-3.582 8,-8s-3.582,-8 -8,-8z"/>
    <path fill="#00bd9d" stroke="null" id="svg_38" d="m4005.005898,3432.175781l-240,0c-4.418,0 -8,3.582 -8,8s3.582,8 8,8l240,0c4.418,0 8,-3.582 8,-8s-3.582,-8 -8,-8z"/>
   </g>
   <g stroke="null" transform="matrix(0.7240667089582399,0,0,0.6791449899232297,-2554.3436428105274,-2014.915489780864) " id="svg_39"/>
   <g stroke="null" transform="matrix(0.7240667089582399,0,0,0.6791449899232297,-2554.3436428105274,-2014.915489780864) " id="svg_40"/>
   <g stroke="null" transform="matrix(0.7240667089582399,0,0,0.6791449899232297,-2554.3436428105274,-2014.915489780864) " id="svg_41"/>
   <g stroke="null" transform="matrix(0.7240667089582399,0,0,0.6791449899232297,-2554.3436428105274,-2014.915489780864) " id="svg_42"/>
   <g stroke="null" transform="matrix(0.7240667089582399,0,0,0.6791449899232297,-2554.3436428105274,-2014.915489780864) " id="svg_43"/>
   <g stroke="null" transform="matrix(0.7240667089582399,0,0,0.6791449899232297,-2554.3436428105274,-2014.915489780864) " id="svg_44"/>
   <g stroke="null" transform="matrix(0.7240667089582399,0,0,0.6791449899232297,-2554.3436428105274,-2014.915489780864) " id="svg_45"/>
   <g stroke="null" transform="matrix(0.7240667089582399,0,0,0.6791449899232297,-2554.3436428105274,-2014.915489780864) " id="svg_46"/>
   <g stroke="null" transform="matrix(0.7240667089582399,0,0,0.6791449899232297,-2554.3436428105274,-2014.915489780864) " id="svg_47"/>
   <g stroke="null" transform="matrix(0.7240667089582399,0,0,0.6791449899232297,-2554.3436428105274,-2014.915489780864) " id="svg_48"/>
   <g stroke="null" transform="matrix(0.7240667089582399,0,0,0.6791449899232297,-2554.3436428105274,-2014.915489780864) " id="svg_49"/>
   <g stroke="null" transform="matrix(0.7240667089582399,0,0,0.6791449899232297,-2554.3436428105274,-2014.915489780864) " id="svg_50"/>
   <g stroke="null" transform="matrix(0.7240667089582399,0,0,0.6791449899232297,-2554.3436428105274,-2014.915489780864) " id="svg_51"/>
   <g stroke="null" transform="matrix(0.7240667089582399,0,0,0.6791449899232297,-2554.3436428105274,-2014.915489780864) " id="svg_52"/>
   <g stroke="null" transform="matrix(0.7240667089582399,0,0,0.6791449899232297,-2554.3436428105274,-2014.915489780864) " id="svg_53"/>
  </g>
 </g>
</svg>